<svg xmlns="http://www.w3.org/2000/svg" viewBox="0 0 64 64" width="64" height="64">
  <rect width="64" height="64" rx="14" fill="#23262B"/>
  <path d="M6 40V26a3 3 0 0 1 3-3h22a3 3 0 0 1 3 3v14H6z" fill="#C81E1E"/>
  <path d="M34 30h9.5a3 3 0 0 1 2.5 1.35L51 39v1H34V30z" fill="#E8EAED"/>
  <circle cx="18" cy="43" r="5" fill="#14161A"/><circle cx="18" cy="43" r="2" fill="#9AA0A8"/>
  <circle cx="44" cy="43" r="5" fill="#14161A"/><circle cx="44" cy="43" r="2" fill="#9AA0A8"/>
  <rect x="6" y="40" width="52" height="3" rx="1.5" fill="#14161A"/>
  <path d="M10 18h14M10 13h9" stroke="#C81E1E" stroke-width="2.5" stroke-linecap="round"/>
</svg>
